# Blender v2.92.0 OBJ File: 'Furniture.blend'
# www.blender.org
mtllib Griff.mtl
o Griff2_Plane.005
v -0.102482 0.184650 0.343286
v 0.102482 0.184650 0.343286
v -0.102482 0.164915 0.343286
v 0.102482 0.164915 0.343286
v -0.074222 0.184650 0.343286
v -0.024741 0.184650 0.359802
v 0.024741 0.184650 0.359802
v 0.074222 0.184650 0.343286
v 0.074222 0.164915 0.343286
v 0.024741 0.164915 0.359802
v -0.024741 0.164915 0.359802
v -0.074222 0.164915 0.343286
v -0.097900 0.182663 0.348466
v -0.102482 0.184650 0.345335
v 0.097900 0.182663 0.348466
v 0.102482 0.184650 0.345335
v -0.102482 0.164915 0.345335
v -0.097900 0.166902 0.348466
v 0.097900 0.166902 0.348466
v 0.102482 0.164915 0.345335
v -0.072921 0.182663 0.348407
v -0.074548 0.184650 0.345294
v -0.024827 0.182663 0.364459
v -0.025067 0.184650 0.361809
v 0.024827 0.182663 0.364459
v 0.025067 0.184650 0.361809
v 0.074548 0.184650 0.345294
v 0.072921 0.182663 0.348407
v 0.072921 0.166902 0.348407
v 0.074548 0.164915 0.345294
v 0.024827 0.166902 0.364459
v 0.025067 0.164915 0.361809
v -0.024827 0.166902 0.364459
v -0.025067 0.164915 0.361809
v -0.074548 0.164915 0.345294
v -0.072921 0.166902 0.348407
vt 1.000000 0.000000
vt 0.800000 1.000000
vt 0.800000 0.000000
vt 0.200000 0.000000
vt 0.000000 1.000000
vt 0.000000 0.000000
vt 0.400000 0.000000
vt 0.200000 1.000000
vt 0.600000 1.000000
vt 0.400000 1.000000
vt 0.600000 0.000000
vt 1.000838 1.005718
vt 1.000000 1.000000
vt 0.200229 -0.008743
vt 0.600000 0.000000
vt 0.799771 -0.008743
vt 0.799771 1.008743
vt 0.600000 1.000000
vt 0.012816 0.910843
vt 0.200000 0.089157
vt 0.012816 0.089157
vt 0.800000 0.910843
vt 0.987184 0.089157
vt 0.800000 0.089157
vt 0.200229 1.008743
vt -0.000838 1.005718
vt 1.000838 -0.005718
vt 0.400000 0.910843
vt 0.400000 0.089157
vt 0.600000 0.910843
vt 0.600000 0.089157
vt 0.400000 0.000000
vt 0.400000 1.000000
vt 0.987184 0.910843
vt 0.200000 0.910843
vt -0.000838 -0.005718
vn 0.5773 0.5773 -0.5773
vn -0.1187 -0.6727 -0.7303
vn -0.1187 0.6727 -0.7303
vn 0.1187 0.6727 -0.7303
vn -0.5773 -0.5773 -0.5773
vn -0.5773 0.5773 -0.5773
vn 0.1070 0.7450 -0.6583
vn 0.1187 -0.6727 -0.7303
vn -0.1070 -0.7450 -0.6583
vn 0.1070 -0.7450 -0.6583
vn -0.1070 0.7450 -0.6584
vn 0.6637 -0.6293 0.4042
vn 0.5773 -0.5773 -0.5773
vn -0.0291 0.9639 0.2647
vn 0.0647 0.9356 0.3470
vn 0.0291 0.9639 0.2647
vn 0.0291 -0.9639 0.2647
vn 0.0647 -0.9356 0.3470
vn -0.2130 -0.4119 0.8859
vn -0.1625 0.4692 0.8680
vn -0.2130 0.4119 0.8859
vn 0.1625 -0.4692 0.8680
vn 0.2130 0.4119 0.8859
vn 0.1625 0.4692 0.8680
vn -0.0291 -0.9639 0.2647
vn -0.6637 -0.6293 0.4042
vn 0.6637 0.6293 0.4042
vn -0.1392 -0.4253 0.8943
vn -0.1392 0.4253 0.8943
vn 0.1392 -0.4253 0.8943
vn 0.1392 0.4253 0.8943
vn -0.0647 0.9356 0.3470
vn -0.0647 -0.9356 0.3470
vn 0.2130 -0.4119 0.8859
vn -0.1625 -0.4692 0.8680
vn -0.6637 0.6293 0.4042
usemtl None
s 1
f 2/1/1 9/2/2 8/3/3
f 5/4/4 3/5/5 1/6/6
f 6/7/7 12/8/8 5/4/4
f 6/7/7 10/9/9 11/10/10
f 8/3/3 10/9/9 7/11/11
f 2/1/1 20/12/12 4/13/13
f 1/6/6 22/14/14 5/4/4
f 6/7/7 26/15/15 7/11/11
f 7/11/11 27/16/16 8/3/3
f 10/9/9 30/17/17 32/18/18
f 18/19/19 21/20/20 13/21/21
f 29/22/22 15/23/23 28/24/24
f 3/5/5 35/25/25 17/26/26
f 4/13/13 30/17/17 9/2/2
f 2/1/1 27/16/16 16/27/27
f 21/20/20 33/28/28 23/29/29
f 23/29/29 31/30/30 25/31/31
f 25/31/31 29/22/22 28/24/24
f 6/7/7 22/14/14 24/32/32
f 10/9/9 34/33/33 11/10/10
f 11/10/10 35/25/25 12/8/8
f 13/21/21 17/26/26 18/19/19
f 15/23/23 27/16/16 28/24/24
f 19/34/34 16/27/27 15/23/23
f 18/19/19 35/25/25 36/35/35
f 13/21/21 22/14/14 14/36/36
f 21/20/20 24/32/32 22/14/14
f 25/31/31 24/32/32 23/29/29
f 28/24/24 26/15/15 25/31/31
f 19/34/34 30/17/17 20/12/12
f 29/22/22 32/18/18 30/17/17
f 33/28/28 32/18/18 31/30/30
f 36/35/35 34/33/33 33/28/28
f 3/5/5 14/36/36 1/6/6
f 2/1/1 4/13/13 9/2/2
f 5/4/4 12/8/8 3/5/5
f 6/7/7 11/10/10 12/8/8
f 6/7/7 7/11/11 10/9/9
f 8/3/3 9/2/2 10/9/9
f 2/1/1 16/27/27 20/12/12
f 1/6/6 14/36/36 22/14/14
f 6/7/7 24/32/32 26/15/15
f 7/11/11 26/15/15 27/16/16
f 10/9/9 9/2/2 30/17/17
f 18/19/19 36/35/35 21/20/20
f 29/22/22 19/34/34 15/23/23
f 3/5/5 12/8/8 35/25/25
f 4/13/13 20/12/12 30/17/17
f 2/1/1 8/3/3 27/16/16
f 21/20/20 36/35/35 33/28/28
f 23/29/29 33/28/28 31/30/30
f 25/31/31 31/30/30 29/22/22
f 6/7/7 5/4/4 22/14/14
f 10/9/9 32/18/18 34/33/33
f 11/10/10 34/33/33 35/25/25
f 13/21/21 14/36/36 17/26/26
f 15/23/23 16/27/27 27/16/16
f 19/34/34 20/12/12 16/27/27
f 18/19/19 17/26/26 35/25/25
f 13/21/21 21/20/20 22/14/14
f 21/20/20 23/29/29 24/32/32
f 25/31/31 26/15/15 24/32/32
f 28/24/24 27/16/16 26/15/15
f 19/34/34 29/22/22 30/17/17
f 29/22/22 31/30/30 32/18/18
f 33/28/28 34/33/33 32/18/18
f 36/35/35 35/25/25 34/33/33
f 3/5/5 17/26/26 14/36/36
