# Blender v2.92.0 OBJ File: 'Furniture.blend'
# www.blender.org
mtllib Kommode.mtl
o Kommode_Cube.002
v 0.500000 0.070000 0.000000
v 0.010000 0.120000 0.020000
v 0.500000 0.070000 0.400000
v 0.450000 0.120000 0.400000
v 0.450000 0.070000 0.000000
v 0.450000 0.070000 0.400000
v 0.450000 0.120000 0.020000
v 0.500000 0.070000 0.350000
v 0.450000 0.070000 0.350000
v 0.500000 0.070000 0.050000
v 0.450000 0.070000 0.050000
v 0.500000 0.000000 0.050000
v 0.500000 0.000000 0.000000
v 0.450000 0.000000 0.400000
v 0.500000 0.000000 0.400000
v 0.450000 0.000000 0.000000
v 0.450000 0.000000 0.350000
v 0.500000 0.000000 0.350000
v 0.450000 0.000000 0.050000
v 0.010000 0.120000 0.400000
v 0.010000 0.760000 0.400000
v 0.450000 0.760000 0.400000
v -0.500000 0.070000 0.000000
v 0.500000 0.810000 0.000000
v 0.010000 0.760000 0.020000
v 0.450000 0.760000 0.020000
v -0.010000 0.120000 0.020000
v -0.450000 0.070000 0.000000
v -0.450000 0.070000 0.400000
v -0.450000 0.120000 0.020000
v -0.500000 0.070000 0.350000
v -0.450000 0.070000 0.350000
v -0.450000 0.070000 0.050000
v -0.500000 0.000000 0.050000
v -0.500000 0.000000 0.000000
v -0.450000 0.000000 0.400000
v -0.500000 0.000000 0.400000
v -0.450000 0.000000 0.000000
v -0.450000 0.000000 0.350000
v -0.500000 0.000000 0.350000
v -0.450000 0.000000 0.050000
v -0.500000 0.070000 0.400000
v -0.500000 0.070000 0.050000
v -0.010000 0.120000 0.400000
v -0.450000 0.120000 0.400000
v -0.450000 0.760000 0.400000
v -0.500000 0.810000 0.000000
v -0.500000 0.810000 0.400000
v 0.500000 0.810000 0.400000
v -0.010000 0.760000 0.020000
v -0.450000 0.760000 0.020000
v -0.010000 0.760000 0.400000
vt 0.375000 0.500000
vt 0.375000 0.500000
vt 0.375000 0.500000
vt 0.375000 0.750000
vt 0.375000 0.750000
vt 0.375000 0.750000
vt 0.383929 0.762500
vt 0.383929 0.875000
vt 0.383929 0.875000
vt 0.375000 0.750000
vt 0.375000 0.500000
vt 0.375000 0.500000
vt 0.375000 0.500000
vt 0.375000 0.750000
vt 0.375000 0.750000
vt 0.375000 0.750000
vt 0.375000 0.500000
vt 0.375000 0.500000
vt 0.375000 0.750000
vt 0.375000 0.750000
vt 0.375000 0.750000
vt 0.375000 0.750000
vt 0.383929 0.762500
vt 0.375000 0.500000
vt 0.000000 0.000000
vt 0.383929 0.875000
vt 0.383929 0.762500
vt 0.383929 0.762500
vt 0.383929 0.875000
vt 0.375000 0.500000
vt 0.375000 0.500000
vt 0.375000 0.500000
vt 0.375000 0.750000
vt 0.375000 0.500000
vt 0.383929 0.875000
vt 0.383929 0.762500
vt 0.383929 0.875000
vt 0.000000 0.000000
vt 0.375000 0.500000
vt 0.375000 0.500000
vt 0.375000 0.750000
vt 0.375000 0.750000
vt 0.375000 0.750000
vt 0.375000 0.500000
vt 0.375000 0.750000
vt 0.375000 0.750000
vt 0.375000 0.750000
vt 0.383929 0.875000
vt 0.383929 0.762500
vt 0.383929 0.762500
vt 0.383929 0.762500
vt 0.383929 0.875000
vn 0.0000 0.0000 1.0000
vn 0.0000 -1.0000 0.0000
vn 0.0000 1.0000 0.0000
vn 0.0000 0.0000 -1.0000
vn -1.0000 0.0000 0.0000
vn 1.0000 0.0000 0.0000
usemtl Material.001
s off
f 11/1/1 12/2/1 10/3/1
f 29/4/2 9/5/2 6/6/2
f 4/7/3 2/8/3 20/9/3
f 32/10/2 11/1/2 9/5/2
f 10/3/2 9/5/2 11/1/2
f 1/11/4 16/12/4 5/13/4
f 18/14/2 14/15/2 17/16/2
f 13/17/2 19/18/2 16/12/2
f 9/5/5 14/15/5 6/6/5
f 10/3/6 13/17/6 1/11/6
f 8/19/4 17/16/4 9/5/4
f 5/13/5 19/18/5 11/1/5
f 3/20/6 18/14/6 8/19/6
f 6/6/1 15/21/1 3/20/1
f 4/7/1 49/22/1 22/23/1
f 28/24/4 24/25/4 5/13/4
f 6/6/1 3/20/1 4/7/1
f 21/26/1 22/23/1 49/22/1
f 4/7/5 26/27/5 7/28/5
f 7/28/1 25/29/1 2/8/1
f 2/8/6 21/26/6 20/9/6
f 25/29/2 22/23/2 21/26/2
f 34/30/1 33/31/1 43/32/1
f 48/33/3 24/25/3 47/34/3
f 4/7/1 20/9/1 6/6/1
f 44/35/1 45/36/1 29/4/1
f 27/37/3 45/36/3 44/35/3
f 29/4/1 20/9/1 44/35/1
f 32/10/2 43/32/2 33/31/2
f 23/38/4 38/39/4 35/40/4
f 33/31/2 5/13/2 11/1/2
f 36/41/2 40/42/2 39/43/2
f 41/44/2 35/40/2 38/39/2
f 36/41/6 32/10/6 29/4/6
f 34/30/5 23/38/5 35/40/5
f 39/43/4 31/45/4 32/10/4
f 41/44/6 28/24/6 33/31/6
f 40/42/5 42/46/5 31/45/5
f 37/47/1 29/4/1 42/46/1
f 24/25/6 8/19/6 10/3/6
f 3/20/6 8/19/6 49/22/6
f 5/13/4 24/25/4 1/11/4
f 42/46/1 29/4/1 45/36/1
f 42/46/5 48/33/5 31/45/5
f 21/26/1 44/35/1 20/9/1
f 45/36/1 48/33/1 42/46/1
f 47/34/4 28/24/4 23/38/4
f 48/33/5 43/32/5 31/45/5
f 43/32/5 47/34/5 23/38/5
f 49/22/1 52/48/1 21/26/1
f 52/48/1 48/33/1 46/49/1
f 1/11/6 24/25/6 10/3/6
f 51/50/6 45/36/6 30/51/6
f 50/52/1 30/51/1 27/37/1
f 52/48/5 27/37/5 44/35/5
f 46/49/2 50/52/2 52/48/2
f 11/1/1 19/18/1 12/2/1
f 29/4/2 32/10/2 9/5/2
f 4/7/3 7/28/3 2/8/3
f 32/10/2 33/31/2 11/1/2
f 10/3/2 8/19/2 9/5/2
f 1/11/4 13/17/4 16/12/4
f 18/14/2 15/21/2 14/15/2
f 13/17/2 12/2/2 19/18/2
f 9/5/5 17/16/5 14/15/5
f 10/3/6 12/2/6 13/17/6
f 8/19/4 18/14/4 17/16/4
f 5/13/5 16/12/5 19/18/5
f 3/20/6 15/21/6 18/14/6
f 6/6/1 14/15/1 15/21/1
f 4/7/1 3/20/1 49/22/1
f 28/24/4 47/34/4 24/25/4
f 4/7/5 22/23/5 26/27/5
f 7/28/1 26/27/1 25/29/1
f 2/8/6 25/29/6 21/26/6
f 25/29/2 26/27/2 22/23/2
f 34/30/1 41/44/1 33/31/1
f 48/33/3 49/22/3 24/25/3
f 27/37/3 30/51/3 45/36/3
f 29/4/1 6/6/1 20/9/1
f 32/10/2 31/45/2 43/32/2
f 23/38/4 28/24/4 38/39/4
f 33/31/2 28/24/2 5/13/2
f 36/41/2 37/47/2 40/42/2
f 41/44/2 34/30/2 35/40/2
f 36/41/6 39/43/6 32/10/6
f 34/30/5 43/32/5 23/38/5
f 39/43/4 40/42/4 31/45/4
f 41/44/6 38/39/6 28/24/6
f 40/42/5 37/47/5 42/46/5
f 37/47/1 36/41/1 29/4/1
f 24/25/6 49/22/6 8/19/6
f 21/26/1 52/48/1 44/35/1
f 45/36/1 46/49/1 48/33/1
f 48/33/5 47/34/5 43/32/5
f 49/22/1 48/33/1 52/48/1
f 51/50/6 46/49/6 45/36/6
f 50/52/1 51/50/1 30/51/1
f 52/48/5 50/52/5 27/37/5
f 46/49/2 51/50/2 50/52/2
