# Blender v2.92.0 OBJ File: 'Furniture.blend'
# www.blender.org
mtllib Schublade2.mtl
o Schublade1_Plane.002
v -0.020690 0.130455 0.379628
v -0.439310 0.130455 0.379628
v -0.020690 0.130455 0.030779
v -0.439310 0.130455 0.030779
v -0.449277 0.120488 0.020811
v -0.010723 0.120488 0.020811
v -0.020690 0.319831 0.379628
v -0.439310 0.319831 0.379628
v -0.020690 0.319831 0.030779
v -0.439310 0.319831 0.030779
v -0.449277 0.319831 0.399563
v -0.449277 0.319831 0.020811
v -0.010723 0.319831 0.020811
v -0.449277 0.319831 0.379628
v -0.010723 0.319831 0.399563
v -0.010723 0.319831 0.379628
v -0.010723 0.120488 0.399563
v -0.449277 0.367194 0.379628
v -0.449277 0.367194 0.399563
v -0.010723 0.367194 0.399563
v -0.010723 0.367194 0.379628
v -0.449277 0.120488 0.399563
vt 0.000000 0.000000
vt 0.000000 0.000000
vt 0.000000 0.000000
vt 0.000000 0.000000
vt 0.000000 0.000000
vt 0.000000 0.000000
vt 0.000000 0.000000
vt 0.000000 0.000000
vt 0.000000 0.000000
vt 0.000000 0.000000
vt 0.000000 0.000000
vt 0.000000 0.000000
vt 0.000000 0.000000
vt 0.000000 0.000000
vt 0.000000 0.000000
vt 0.000000 0.000000
vt 0.000000 0.000000
vt 0.000000 0.000000
vt 0.000000 0.000000
vt 0.000000 0.000000
vt 0.000000 0.000000
vt 0.000000 0.000000
vn 0.0000 1.0000 0.0000
vn -1.0000 -0.0000 0.0000
vn 1.0000 0.0000 0.0000
vn 0.0000 0.0000 1.0000
vn 0.0000 0.0000 -1.0000
vn 0.0000 -1.0000 0.0000
usemtl None
s off
f 1/1/1 4/2/1 2/3/1
f 14/4/2 5/5/2 22/6/2
f 10/7/3 2/3/3 4/2/3
f 15/8/4 22/6/4 17/9/4
f 12/10/5 6/11/5 5/5/5
f 7/12/2 3/13/2 1/1/2
f 9/14/4 4/2/4 3/13/4
f 21/15/3 15/8/3 16/16/3
f 20/17/4 11/18/4 15/8/4
f 8/19/5 14/4/5 18/20/5
f 10/7/1 14/4/1 8/19/1
f 9/14/1 16/16/1 13/21/1
f 9/14/1 12/10/1 10/7/1
f 6/11/3 16/16/3 17/9/3
f 22/6/2 11/18/2 14/4/2
f 8/19/5 1/1/5 2/3/5
f 17/9/3 16/16/3 15/8/3
f 19/22/1 21/15/1 18/20/1
f 7/12/5 21/15/5 16/16/5
f 18/20/5 7/12/5 8/19/5
f 11/18/2 18/20/2 14/4/2
f 22/6/6 6/11/6 17/9/6
f 1/1/1 3/13/1 4/2/1
f 14/4/2 12/10/2 5/5/2
f 10/7/3 8/19/3 2/3/3
f 15/8/4 11/18/4 22/6/4
f 12/10/5 13/21/5 6/11/5
f 7/12/2 9/14/2 3/13/2
f 9/14/4 10/7/4 4/2/4
f 21/15/3 20/17/3 15/8/3
f 20/17/4 19/22/4 11/18/4
f 10/7/1 12/10/1 14/4/1
f 9/14/1 7/12/1 16/16/1
f 9/14/1 13/21/1 12/10/1
f 6/11/3 13/21/3 16/16/3
f 8/19/5 7/12/5 1/1/5
f 19/22/1 20/17/1 21/15/1
f 18/20/5 21/15/5 7/12/5
f 11/18/2 19/22/2 18/20/2
f 22/6/6 5/5/6 6/11/6
