# Blender v2.92.0 OBJ File: 'Furniture.blend'
# www.blender.org
mtllib Schrank2Tuere.mtl
o Tuere_Cube.001
v 0.010665 0.120301 0.399980
v 0.010665 1.357821 0.399980
v 0.010665 0.120301 0.380020
v 0.010665 1.357821 0.380020
v 0.449785 0.120301 0.399980
v 0.449785 1.357821 0.399980
v 0.449785 0.120301 0.380020
v 0.449785 1.357821 0.380020
vt 0.375000 0.000000
vt 0.375000 0.375000
vt 0.375000 0.000000
vt 0.416667 0.375000
vt 0.375000 0.500000
vt 0.458333 0.500000
vt 0.375000 0.750000
vt 0.458333 0.750000
vt 0.375000 0.750000
vt 0.375000 0.500000
vt 0.458333 0.500000
vt 0.458333 0.750000
vn -1.0000 0.0000 0.0000
vn 0.0000 0.0000 -1.0000
vn 1.0000 0.0000 0.0000
vn 0.0000 0.0000 1.0000
vn 0.0000 -1.0000 0.0000
vn 0.0000 1.0000 0.0000
usemtl None
s off
f 2/1/1 3/2/1 1/3/1
f 4/4/2 7/5/2 3/2/2
f 8/6/3 5/7/3 7/5/3
f 6/8/4 1/9/4 5/7/4
f 7/5/5 1/9/5 3/10/5
f 4/11/6 6/8/6 8/6/6
f 2/1/1 4/4/1 3/2/1
f 4/4/2 8/6/2 7/5/2
f 8/6/3 6/8/3 5/7/3
f 6/8/4 2/12/4 1/9/4
f 7/5/5 5/7/5 1/9/5
f 4/11/6 2/12/6 6/8/6
