# Blender v2.92.0 OBJ File: 'Furniture.blend'
# www.blender.org
mtllib SchrankDisplayTuere.mtl
o TuereV2_Plane.003
v 0.480000 2.480000 0.250000
v 0.005000 2.480000 0.250000
v 0.005000 1.020000 0.250000
v 0.480000 1.020000 0.250000
v 0.005000 1.020000 0.240000
v 0.480000 1.020000 0.240000
v 0.480000 2.480000 0.240000
v 0.005000 2.480000 0.240000
vt 0.000000 0.000000
vt 0.000000 0.000000
vt 0.000000 0.000000
vt 0.000000 0.000000
vt 0.000000 0.000000
vt 0.000000 0.000000
vt 0.000000 0.000000
vt 0.000000 0.000000
vn 0.0000 0.0000 1.0000
vn 0.0000 0.0000 -1.0000
vn 0.0000 1.0000 0.0000
vn 1.0000 0.0000 0.0000
vn 0.0000 -1.0000 0.0000
vn -1.0000 0.0000 0.0000
usemtl None
s off
f 1/1/1 3/2/1 4/3/1
f 5/4/2 7/5/2 6/6/2
f 7/5/3 2/7/3 1/1/3
f 6/6/4 1/1/4 4/3/4
f 5/4/5 4/3/5 3/2/5
f 8/8/6 3/2/6 2/7/6
f 1/1/1 2/7/1 3/2/1
f 5/4/2 8/8/2 7/5/2
f 7/5/3 8/8/3 2/7/3
f 6/6/4 7/5/4 1/1/4
f 5/4/5 6/6/5 4/3/5
f 8/8/6 5/4/6 3/2/6
