# Blender v2.92.0 OBJ File: 'Furniture.blend'
# www.blender.org
mtllib SchrankDisplayTuereKlein.mtl
o Tuere2_Plane.004
v 0.000000 0.070000 0.500000
v 0.480000 0.070000 0.500000
v 0.000000 0.980000 0.500000
v 0.480000 0.980000 0.500000
v 0.000000 0.980000 0.480000
v 0.000000 0.070000 0.480000
v 0.480000 0.070000 0.480000
v 0.480000 0.980000 0.480000
vt 1.000000 0.000000
vt 0.000000 1.000000
vt 0.000000 0.000000
vt 0.000000 1.000000
vt 1.000000 0.000000
vt 0.000000 0.000000
vt 1.000000 1.000000
vt 1.000000 1.000000
vn 0.0000 0.0000 1.0000
vn 0.0000 0.0000 -1.0000
vn 1.0000 0.0000 0.0000
vn -1.0000 0.0000 0.0000
vn 0.0000 1.0000 0.0000
vn 0.0000 -1.0000 0.0000
usemtl None
s off
f 2/1/1 3/2/1 1/3/1
f 5/4/2 7/5/2 6/6/2
f 7/5/3 4/7/3 2/1/3
f 5/4/4 1/3/4 3/2/4
f 8/8/5 3/2/5 4/7/5
f 6/6/6 2/1/6 1/3/6
f 2/1/1 4/7/1 3/2/1
f 5/4/2 8/8/2 7/5/2
f 7/5/3 8/8/3 4/7/3
f 5/4/4 6/6/4 1/3/4
f 8/8/5 5/4/5 3/2/5
f 6/6/6 7/5/6 2/1/6
