# Blender v2.92.0 OBJ File: 'Furniture.blend'
# www.blender.org
mtllib SchubladeKlein.mtl
o SchubladeSmall1_Plane.009
v -0.450000 0.120000 0.400000
v -0.020000 0.130000 0.380000
v -0.440000 0.130000 0.380000
v -0.020000 0.130000 0.030000
v -0.440000 0.130000 0.030000
v -0.020000 0.250000 0.380000
v -0.440000 0.250000 0.380000
v -0.020000 0.250000 0.030000
v -0.440000 0.250000 0.030000
v -0.450000 0.250000 0.020000
v -0.450000 0.250000 0.380000
v -0.010000 0.280000 0.400000
v -0.010000 0.250000 0.380000
v -0.010000 0.250000 0.020000
v -0.010000 0.120000 0.400000
v -0.010000 0.280000 0.380000
v -0.450000 0.280000 0.380000
v -0.450000 0.280000 0.400000
v -0.010000 0.120000 0.020000
v -0.450000 0.120000 0.020000
vt 0.000000 0.000000
vt 0.000000 0.000000
vt 0.000000 0.000000
vt 0.000000 0.000000
vt 0.000000 0.000000
vt 0.000000 0.000000
vt 0.000000 0.000000
vt 0.000000 0.000000
vt 0.000000 0.000000
vt 0.000000 0.000000
vt 0.000000 0.000000
vt 0.000000 0.000000
vt 0.000000 0.000000
vt 0.000000 0.000000
vt 0.000000 0.000000
vt 0.000000 0.000000
vt 0.000000 0.000000
vt 0.000000 0.000000
vt 0.000000 0.000000
vt 0.000000 0.000000
vn 0.0000 1.0000 0.0000
vn -1.0000 0.0000 0.0000
vn 1.0000 0.0000 0.0000
vn 0.0000 0.0000 1.0000
vn 0.0000 0.0000 -1.0000
vn 0.0000 -1.0000 0.0000
usemtl None
s off
f 2/1/1 5/2/1 3/3/1
f 11/4/2 20/5/2 1/6/2
f 9/7/3 3/3/3 5/2/3
f 12/8/4 1/6/4 15/9/4
f 10/10/5 19/11/5 20/5/5
f 6/12/2 4/13/2 2/1/2
f 8/14/4 5/2/4 4/13/4
f 13/15/3 16/16/3 12/8/3
f 7/17/5 11/4/5 17/18/5
f 9/7/1 11/4/1 7/17/1
f 8/14/1 13/15/1 14/19/1
f 8/14/1 10/10/1 9/7/1
f 19/11/3 13/15/3 15/9/3
f 1/6/2 18/20/2 11/4/2
f 7/17/5 2/1/5 3/3/5
f 15/9/3 13/15/3 12/8/3
f 18/20/1 16/16/1 17/18/1
f 6/12/5 16/16/5 13/15/5
f 17/18/5 6/12/5 7/17/5
f 11/4/2 18/20/2 17/18/2
f 1/6/6 19/11/6 15/9/6
f 2/1/1 4/13/1 5/2/1
f 11/4/2 10/10/2 20/5/2
f 9/7/3 7/17/3 3/3/3
f 12/8/4 18/20/4 1/6/4
f 10/10/5 14/19/5 19/11/5
f 6/12/2 8/14/2 4/13/2
f 8/14/4 9/7/4 5/2/4
f 9/7/1 10/10/1 11/4/1
f 8/14/1 6/12/1 13/15/1
f 8/14/1 14/19/1 10/10/1
f 19/11/3 14/19/3 13/15/3
f 7/17/5 6/12/5 2/1/5
f 18/20/1 12/8/1 16/16/1
f 17/18/5 16/16/5 6/12/5
f 1/6/6 20/5/6 19/11/6
