# Blender v2.92.0 OBJ File: 'Furniture.blend'
# www.blender.org
mtllib Schublade.mtl
o Schublade3_Cube.004
v -0.382264 0.019836 0.343058
v 0.382264 0.019836 0.343058
v -0.382264 0.019836 0.013956
v 0.382264 0.019836 0.013956
v -0.373144 0.206704 0.333938
v 0.373144 0.206704 0.333938
v -0.373144 0.206704 0.023076
v 0.373144 0.206704 0.023076
v -0.382264 0.206704 0.343058
v 0.382264 0.206704 0.343058
v -0.382264 0.206704 0.013956
v 0.382264 0.206704 0.013956
v -0.373144 0.029435 0.333938
v 0.373144 0.029435 0.333938
v -0.373144 0.029435 0.023076
v 0.373144 0.029435 0.023076
vt 0.380020 0.993915
vt 0.380020 0.756085
vt 0.380020 0.993915
vt 0.380020 0.991078
vt 0.380020 0.991078
vt 0.380020 0.991078
vt 0.380020 0.756085
vt 0.380020 0.756085
vt 0.380020 0.993915
vt 0.380020 0.993915
vt 0.380020 0.756085
vt 0.380020 0.758922
vt 0.380020 0.758922
vt 0.380020 0.758922
vt 0.380020 0.991078
vt 0.380020 0.758922
vn 0.0000 -1.0000 0.0000
vn 1.0000 0.0000 0.0000
vn 0.0000 0.0000 1.0000
vn -1.0000 0.0000 0.0000
vn 0.0000 0.0000 -1.0000
vn 0.0000 1.0000 -0.0000
usemtl None
s off
f 3/1/1 2/2/1 1/3/1
f 5/4/2 15/5/2 7/6/2
f 4/7/2 10/8/2 2/2/2
f 2/2/3 9/9/3 1/3/3
f 1/3/4 11/10/4 3/1/4
f 3/1/5 12/11/5 4/7/5
f 5/4/6 10/8/6 6/12/6
f 8/13/6 11/10/6 7/6/6
f 6/12/6 12/11/6 8/13/6
f 7/6/6 9/9/6 5/4/6
f 14/14/6 15/5/6 13/15/6
f 7/6/3 16/16/3 8/13/3
f 8/13/4 14/14/4 6/12/4
f 6/12/5 13/15/5 5/4/5
f 3/1/1 4/7/1 2/2/1
f 5/4/2 13/15/2 15/5/2
f 4/7/2 12/11/2 10/8/2
f 2/2/3 10/8/3 9/9/3
f 1/3/4 9/9/4 11/10/4
f 3/1/5 11/10/5 12/11/5
f 5/4/6 9/9/6 10/8/6
f 8/13/6 12/11/6 11/10/6
f 6/12/6 10/8/6 12/11/6
f 7/6/6 11/10/6 9/9/6
f 14/14/6 16/16/6 15/5/6
f 7/6/3 15/5/3 16/16/3
f 8/13/4 16/16/4 14/14/4
f 6/12/5 14/14/5 13/15/5
