# Blender v2.92.0 OBJ File: 'Furniture.blend'
# www.blender.org
mtllib TischKlein.mtl
o TischSmall_Cube.013
v -0.738871 0.355450 0.500000
v -0.638871 0.322008 0.400000
v -0.738871 0.322008 0.500000
v -0.652865 0.322008 0.400000
v -0.712361 0.268679 0.401510
v -0.640380 0.268679 0.401509
v -0.640380 0.268679 0.473490
v -0.713871 0.322008 0.400000
v -0.638871 0.322008 0.415000
v -0.638871 0.322008 0.460000
v -0.713871 0.322008 0.475000
v -0.653871 0.000000 0.415000
v -0.638871 0.322008 0.475000
v -0.640380 0.268679 0.459497
v -0.640380 0.268679 0.415504
v -0.712361 0.268679 0.473490
v -0.699877 0.322008 0.400000
v -0.654374 0.268679 0.401509
v -0.698367 0.268679 0.401510
v -0.653871 0.000000 0.460000
v -0.698871 0.000000 0.460000
v -0.698871 0.000000 0.415000
v 0.738871 0.355450 0.500000
v 0.638871 0.322008 0.400000
v 0.738871 0.322008 0.500000
v 0.652865 0.322008 0.400000
v 0.712361 0.268679 0.401510
v 0.640380 0.268679 0.401509
v 0.640380 0.268679 0.473490
v 0.713871 0.322008 0.400000
v 0.638871 0.322008 0.415000
v 0.638871 0.322008 0.460000
v 0.713871 0.322008 0.475000
v 0.653871 0.000000 0.415000
v 0.638871 0.322008 0.475000
v 0.640380 0.268679 0.459497
v 0.640380 0.268679 0.415504
v 0.712361 0.268679 0.473490
v 0.699877 0.322008 0.400000
v 0.654374 0.268679 0.401509
v 0.698367 0.268679 0.401510
v 0.653871 0.000000 0.460000
v 0.698871 0.000000 0.460000
v 0.698871 0.000000 0.415000
v -0.738871 0.349530 -0.500000
v -0.638871 0.322008 -0.400000
v -0.738871 0.322008 -0.500000
v -0.652865 0.322008 -0.400000
v -0.712361 0.268679 -0.401510
v -0.640380 0.268679 -0.401509
v -0.640380 0.268679 -0.473490
v -0.713871 0.322008 -0.400000
v -0.638871 0.322008 -0.415000
v -0.638871 0.322008 -0.460000
v -0.713871 0.322008 -0.475000
v -0.653871 0.000000 -0.415000
v -0.638871 0.322008 -0.475000
v -0.640380 0.268679 -0.459497
v -0.640380 0.268679 -0.415504
v -0.712361 0.268679 -0.473490
v -0.699877 0.322008 -0.400000
v -0.654374 0.268679 -0.401509
v -0.698367 0.268679 -0.401510
v -0.653871 0.000000 -0.460000
v -0.698871 0.000000 -0.460000
v -0.698871 0.000000 -0.415000
v 0.738871 0.349530 -0.500000
v 0.638871 0.322008 -0.400000
v 0.738871 0.322008 -0.500000
v 0.652865 0.322008 -0.400000
v 0.712361 0.268679 -0.401510
v 0.640380 0.268679 -0.401509
v 0.640380 0.268679 -0.473490
v 0.713871 0.322008 -0.400000
v 0.638871 0.322008 -0.415000
v 0.638871 0.322008 -0.460000
v 0.713871 0.322008 -0.475000
v 0.653871 0.000000 -0.415000
v 0.638871 0.322008 -0.475000
v 0.640380 0.268679 -0.459497
v 0.640380 0.268679 -0.415504
v 0.712361 0.268679 -0.473490
v 0.699877 0.322008 -0.400000
v 0.654374 0.268679 -0.401509
v 0.698367 0.268679 -0.401510
v 0.653871 0.000000 -0.460000
v 0.698871 0.000000 -0.460000
v 0.698871 0.000000 -0.415000
vt 0.000000 0.000000
vt 0.000000 0.000000
vt 0.000000 0.000000
vt 0.000000 0.000000
vt 0.000000 0.000000
vt 0.000000 0.000000
vt 0.860831 0.725000
vt 0.860831 0.725000
vt 0.860831 0.725000
vt 0.000000 0.000000
vt 0.000000 0.000000
vt 0.000000 0.000000
vt 0.000000 0.000000
vt 0.000000 0.000000
vt 0.860831 0.725000
vt 0.860831 0.725000
vt 0.860831 0.725000
vt 0.000000 0.000000
vt 0.000000 0.000000
vt 0.000000 0.000000
vt 0.000000 0.000000
vt 0.000000 0.000000
vt 0.000000 0.000000
vt 0.000000 0.000000
vt 0.000000 0.000000
vt 0.000000 0.000000
vt 0.000000 0.000000
vt 0.000000 0.000000
vt 0.000000 0.000000
vt 0.860831 0.725000
vt 0.000000 0.000000
vt 0.000000 0.000000
vt 0.000000 0.000000
vt 0.000000 0.000000
vt 0.000000 0.000000
vt 0.860831 0.725000
vt 0.860831 0.725000
vt 0.000000 0.000000
vt 0.000000 0.000000
vt 0.000000 0.000000
vt 0.860831 0.725000
vt 0.000000 0.000000
vt 0.000000 0.000000
vt 0.000000 0.000000
vt 0.000000 0.000000
vt 0.000000 0.000000
vt 0.860831 0.725000
vt 0.860831 0.725000
vt 0.000000 0.000000
vt 0.000000 0.000000
vt 0.000000 0.000000
vt 0.860831 0.725000
vt 0.860831 0.725000
vt 0.000000 0.000000
vt 0.000000 0.000000
vt 0.000000 0.000000
vt 0.000000 0.000000
vt 0.000000 0.000000
vt 0.000000 0.000000
vt 0.000000 0.000000
vt 0.000000 0.000000
vt 0.000000 0.000000
vt 0.000000 0.000000
vt 0.000000 0.000000
vt 0.000000 0.000000
vt 0.000000 0.000000
vt 0.000000 0.000000
vt 0.000000 0.000000
vt 0.000000 0.000000
vt 0.000000 0.000000
vt 0.000000 0.000000
vt 0.000000 0.000000
vt 0.000000 0.000000
vt 0.860831 0.725000
vt 0.860831 0.725000
vt 0.000000 0.000000
vt 0.860831 0.725000
vt 0.000000 0.000000
vt 0.000000 0.000000
vt 0.000000 0.000000
vt 0.000000 0.000000
vt 0.000000 0.000000
vt 0.000000 0.000000
vt 0.000000 0.000000
vt 0.000000 0.000000
vt 0.000000 0.000000
vt 0.000000 0.000000
vt 0.860831 0.725000
vt 0.000000 0.000000
vt 0.000000 0.000000
vt 0.000000 0.000000
vt 0.000000 0.000000
vt 0.000000 0.000000
vt 0.860831 0.725000
vt 0.860831 0.725000
vt 0.000000 0.000000
vt 0.000000 0.000000
vt 0.000000 0.000000
vt 0.000000 0.000000
vt 0.000000 0.000000
vn 0.0000 -1.0000 0.0000
vn 0.0000 -0.0501 -0.9987
vn 0.9987 -0.0501 0.0000
vn 0.9996 -0.0283 0.0000
vn 0.0000 -0.0283 -0.9996
vn -0.9996 -0.0283 0.0000
vn -0.9987 -0.0501 0.0000
vn 0.0000 -0.0283 0.9996
vn 0.0000 -0.0501 0.9987
vn -1.0000 0.0000 0.0000
vn 0.0000 -0.0094 -1.0000
vn 0.0000 0.0000 1.0000
vn 0.0000 1.0000 -0.0059
vn 0.0000 -0.0094 1.0000
vn 1.0000 0.0000 0.0000
vn 0.0000 0.0000 -1.0000
usemtl None
s off
f 11/1/1 3/2/1 8/3/1
f 10/4/1 35/5/1 13/6/1
f 11/1/1 13/6/1 3/2/1
f 48/7/1 2/8/1 4/9/1
f 52/10/1 17/11/1 8/3/1
f 22/12/1 20/13/1 21/14/1
f 18/15/2 6/16/2 12/17/2
f 14/18/3 7/19/3 20/13/3
f 10/4/4 7/19/4 14/18/4
f 4/9/5 6/16/5 18/15/5
f 8/3/6 16/20/6 11/1/6
f 9/21/4 6/22/4 2/23/4
f 6/22/3 15/24/3 12/25/3
f 15/24/3 20/13/3 12/25/3
f 54/26/1 79/27/1 76/28/1
f 5/29/7 21/14/7 16/20/7
f 17/11/5 5/29/5 8/3/5
f 62/30/4 4/9/4 18/15/4
f 11/1/8 7/19/8 13/6/8
f 16/20/9 20/13/9 7/19/9
f 5/29/2 19/31/2 22/12/2
f 19/31/2 12/17/2 22/12/2
f 74/32/1 39/33/1 83/34/1
f 85/35/1 40/36/1 84/37/1
f 33/38/1 30/39/1 25/40/1
f 13/6/1 25/40/1 3/2/1
f 33/38/1 25/40/1 35/5/1
f 40/36/6 70/41/6 84/37/6
f 3/2/10 45/42/10 47/43/10
f 42/44/1 44/45/1 43/46/1
f 40/36/2 34/47/2 28/48/2
f 36/49/7 42/44/7 29/50/7
f 32/51/6 29/50/6 35/5/6
f 26/52/5 28/48/5 24/53/5
f 38/54/4 30/39/4 33/38/4
f 28/55/6 31/56/6 24/57/6
f 28/55/7 34/58/7 37/59/7
f 37/59/7 42/44/7 36/49/7
f 58/60/11 76/28/11 80/61/11
f 43/46/3 27/62/3 38/54/3
f 27/62/5 39/33/5 30/39/5
f 25/40/12 1/63/12 3/2/12
f 29/50/8 33/38/8 35/5/8
f 42/44/9 38/54/9 29/50/9
f 27/62/2 44/45/2 41/64/2
f 41/64/2 34/47/2 40/36/2
f 59/65/1 80/61/1 81/66/1
f 67/67/13 1/63/13 23/68/13
f 55/69/1 52/10/1 47/43/1
f 37/59/1 14/18/1 15/24/1
f 55/69/1 47/43/1 57/70/1
f 2/23/1 31/56/1 9/21/1
f 19/31/1 62/30/1 18/15/1
f 64/71/1 66/72/1 65/73/1
f 62/30/9 56/74/9 50/75/9
f 58/60/3 64/71/3 51/76/3
f 54/26/4 51/76/4 57/70/4
f 48/7/8 50/75/8 46/77/8
f 60/78/6 52/10/6 55/69/6
f 50/79/4 53/80/4 46/81/4
f 46/81/1 75/82/1 68/83/1
f 50/79/3 56/84/3 59/65/3
f 59/65/3 64/71/3 58/60/3
f 17/11/6 63/85/6 19/31/6
f 65/73/7 49/86/7 60/78/7
f 49/86/8 61/87/8 52/10/8
f 36/49/14 10/4/14 14/18/14
f 51/76/5 55/69/5 57/70/5
f 64/71/2 60/78/2 51/76/2
f 49/86/9 66/72/9 63/85/9
f 63/85/9 56/74/9 62/30/9
f 26/52/1 68/88/1 70/41/1
f 9/21/11 37/59/11 15/24/11
f 77/89/1 69/90/1 74/32/1
f 79/27/1 47/43/1 69/90/1
f 77/89/1 79/27/1 69/90/1
f 83/34/4 41/64/4 85/35/4
f 25/40/15 67/67/15 23/68/15
f 88/91/1 86/92/1 87/93/1
f 84/37/9 72/94/9 78/95/9
f 80/61/7 73/96/7 86/92/7
f 76/28/6 73/96/6 80/61/6
f 70/41/8 72/94/8 84/37/8
f 74/32/4 82/97/4 77/89/4
f 75/82/6 72/98/6 68/83/6
f 24/53/1 46/77/1 68/88/1
f 72/98/7 81/66/7 78/99/7
f 81/66/7 86/92/7 78/99/7
f 47/43/16 67/67/16 69/90/16
f 71/100/3 87/93/3 82/97/3
f 83/34/8 71/100/8 74/32/8
f 69/90/1 30/39/1 74/32/1
f 77/89/5 73/96/5 79/27/5
f 82/97/2 86/92/2 73/96/2
f 71/100/9 85/35/9 88/91/9
f 85/35/9 78/95/9 88/91/9
f 75/82/14 59/65/14 81/66/14
f 3/2/1 52/10/1 8/3/1
f 10/4/1 32/51/1 35/5/1
f 48/7/1 46/77/1 2/8/1
f 52/10/1 61/87/1 17/11/1
f 22/12/1 12/25/1 20/13/1
f 10/4/4 13/6/4 7/19/4
f 4/9/5 2/8/5 6/16/5
f 8/3/6 5/29/6 16/20/6
f 9/21/4 15/24/4 6/22/4
f 15/24/3 14/18/3 20/13/3
f 54/26/1 57/70/1 79/27/1
f 5/29/7 22/12/7 21/14/7
f 17/11/5 19/31/5 5/29/5
f 62/30/4 48/7/4 4/9/4
f 11/1/8 16/20/8 7/19/8
f 16/20/9 21/14/9 20/13/9
f 19/31/2 18/15/2 12/17/2
f 74/32/1 30/39/1 39/33/1
f 85/35/1 41/64/1 40/36/1
f 13/6/1 35/5/1 25/40/1
f 40/36/6 26/52/6 70/41/6
f 3/2/10 1/63/10 45/42/10
f 42/44/1 34/58/1 44/45/1
f 32/51/6 36/49/6 29/50/6
f 26/52/5 40/36/5 28/48/5
f 38/54/4 27/62/4 30/39/4
f 28/55/6 37/59/6 31/56/6
f 37/59/7 34/58/7 42/44/7
f 58/60/11 54/26/11 76/28/11
f 43/46/3 44/45/3 27/62/3
f 27/62/5 41/64/5 39/33/5
f 25/40/12 23/68/12 1/63/12
f 29/50/8 38/54/8 33/38/8
f 42/44/9 43/46/9 38/54/9
f 41/64/2 44/45/2 34/47/2
f 59/65/1 58/60/1 80/61/1
f 67/67/13 45/42/13 1/63/13
f 37/59/1 36/49/1 14/18/1
f 2/23/1 24/57/1 31/56/1
f 19/31/1 63/85/1 62/30/1
f 64/71/1 56/84/1 66/72/1
f 54/26/4 58/60/4 51/76/4
f 48/7/8 62/30/8 50/75/8
f 60/78/6 49/86/6 52/10/6
f 50/79/4 59/65/4 53/80/4
f 46/81/1 53/80/1 75/82/1
f 59/65/3 56/84/3 64/71/3
f 17/11/6 61/87/6 63/85/6
f 65/73/7 66/72/7 49/86/7
f 49/86/8 63/85/8 61/87/8
f 36/49/14 32/51/14 10/4/14
f 51/76/5 60/78/5 55/69/5
f 64/71/2 65/73/2 60/78/2
f 63/85/9 66/72/9 56/74/9
f 26/52/1 24/53/1 68/88/1
f 9/21/11 31/56/11 37/59/11
f 79/27/1 57/70/1 47/43/1
f 83/34/4 39/33/4 41/64/4
f 25/40/15 69/90/15 67/67/15
f 88/91/1 78/99/1 86/92/1
f 76/28/6 79/27/6 73/96/6
f 70/41/8 68/88/8 72/94/8
f 74/32/4 71/100/4 82/97/4
f 75/82/6 81/66/6 72/98/6
f 24/53/1 2/23/1 46/77/1
f 81/66/7 80/61/7 86/92/7
f 47/43/16 45/42/16 67/67/16
f 71/100/3 88/91/3 87/93/3
f 83/34/8 85/35/8 71/100/8
f 69/90/1 25/40/1 30/39/1
f 77/89/5 82/97/5 73/96/5
f 82/97/2 87/93/2 86/92/2
f 85/35/9 84/37/9 78/95/9
f 75/82/14 53/80/14 59/65/14
f 3/2/1 47/43/1 52/10/1
